<svg width="240" height="240" viewBox="0 0 240 240" fill="none" xmlns="http://www.w3.org/2000/svg">
<path fill-rule="evenodd" clip-rule="evenodd" d="M157 72.5C157 93.2107 140.211 110 119.5 110C98.7893 110 82 93.2107 82 72.5C82 51.7893 98.7893 35 119.5 35C140.211 35 157 51.7893 157 72.5ZM107 162.5C107 183.211 90.2107 200 69.5 200C48.7893 200 32 183.211 32 162.5C32 141.789 48.7893 125 69.5 125C90.2107 125 107 141.789 107 162.5ZM169.5 200C190.211 200 207 183.211 207 162.5C207 141.789 190.211 125 169.5 125C148.789 125 132 141.789 132 162.5C132 183.211 148.789 200 169.5 200Z" fill="url(#paint0_radial_1_2)"/>
<defs>
<radialGradient id="paint0_radial_1_2" cx="0" cy="0" r="1" gradientUnits="userSpaceOnUse" gradientTransform="translate(120.75 126.75) rotate(-46.7698) scale(125.925 118.442)">
<stop stop-color="#FE02AF"/>
<stop offset="1" stop-color="#3700FF"/>
</radialGradient>
</defs>
</svg>
